<?xml version="1.0" encoding="UTF-8" standalone="no"?>
<svg
   xmlns:dc="http://purl.org/dc/elements/1.1/"
   xmlns:cc="http://creativecommons.org/ns#"
   xmlns:rdf="http://www.w3.org/1999/02/22-rdf-syntax-ns#"
   xmlns:svg="http://www.w3.org/2000/svg"
   xmlns="http://www.w3.org/2000/svg"
   xmlns:sodipodi="http://sodipodi.sourceforge.net/DTD/sodipodi-0.dtd"
   xmlns:inkscape="http://www.inkscape.org/namespaces/inkscape"
   height="596.25"
   viewBox="0 0 360.9375 596.25"
   width="360.94"
   version="1.1"
   id="svg2"
   inkscape:version="0.91 r13725"
   sodipodi:docname="cat.svg"
   inkscape:export-filename="C:\wamp\www\Flashcards\Decks\page_1\language\cat.png"
   inkscape:export-xdpi="38.479813"
   inkscape:export-ydpi="38.479813">
  <metadata
     id="metadata10">
    <rdf:RDF>
      <cc:Work
         rdf:about="">
        <dc:format>image/svg+xml</dc:format>
        <dc:type
           rdf:resource="http://purl.org/dc/dcmitype/StillImage" />
      </cc:Work>
    </rdf:RDF>
  </metadata>
  <defs
     id="defs8" />
  <sodipodi:namedview
     pagecolor="#ffffff"
     bordercolor="#666666"
     borderopacity="1"
     objecttolerance="10"
     gridtolerance="10"
     guidetolerance="10"
     inkscape:pageopacity="0"
     inkscape:pageshadow="2"
     inkscape:window-width="1536"
     inkscape:window-height="841"
     id="namedview6"
     showgrid="false"
     inkscape:zoom="0.70710678"
     inkscape:cx="232.68677"
     inkscape:cy="391.00602"
     inkscape:window-x="-8"
     inkscape:window-y="-8"
     inkscape:window-maximized="1"
     inkscape:current-layer="svg2" />
  <rect
     style="opacity:1;fill:#ffffff;fill-opacity:1;stroke:none;stroke-width:1.29999995;stroke-linejoin:round;stroke-miterlimit:4;stroke-dasharray:none;stroke-dashoffset:0;stroke-opacity:1"
     id="rect4688"
     width="365"
     height="596"
     x="-0.00125122"
     y="0.25"
     inkscape:export-filename="C:\wamp\www\Flashcards\Decks\page_1\language\cat.png"
     inkscape:export-xdpi="90"
     inkscape:export-ydpi="90" />
  <path
     d="m77.732 589.43c-2.791-0.39-8.873-1.74-13.513-2.98-4.641-1.24-11.602-2.97-15.469-3.83-16.569-3.69-30.249-15.81-38.45-34.08l-3.9511-8.799 0.25193-17.92c0.42258-30.058 0.2069-37.398-1.4634-49.802-2.1639-16.069-1.5397-48.252 1.2546-64.681 1.0524-6.1875 2.1062-12.516 2.3419-14.062 1.5744-10.335 12.046-50.433 14.69-56.25 0.46873-1.0312 2.1694-5.25 3.7794-9.375 7.105-18.204 10.722-24.359 20.045-34.107 12.992-13.585 22.807-23.187 25.431-24.881 1.5342-0.99045 5.2474-4.1545 8.2514-7.0312s6.216-5.6523 7.1378-6.1679c0.92174-0.51563 3.1045-2.0925 4.8506-3.5042 11.466-9.27 16.466-12.297 27.55-16.68 8.1619-3.2271 13.533-6.8678 17.98-12.187 4.3436-5.1955 12.13-11.83 19.988-17.031 2.8359-1.877 7.6936-5.8757 10.795-8.8862l5.6385-5.4735 1.2055-8.4318c1.5778-11.036 2.8616-15.345 5.5526-18.635 4.7264-5.7795 6.8981-11.78 11.745-32.453 2.1627-9.2237 2.1746-9.5465 1.5506-42.188-0.42179-22.064 2.8639-34.696 12.158-46.74 2.7823-3.6057 5.1769-9.5665 6.1432-15.292 1.36-8.057 13.28-22.345 18.64-22.345 3.4414 0 10.001 11.28 10.001 17.197 0 4.0838 1.8215 4.6374 20.625 6.269 13.874 1.2039 18.749 3.5216 31.066 14.769 4.9343 4.5059 9.635 7.7252 15.121 10.356 5.9238 2.8407 8.0858 4.3692 8.448 5.9723 0.81165 3.5933 0.033 20.948-1.0288 22.932-0.54656 1.0212-1.4953 4.7798-2.1084 8.3523-2.4738 14.415-9.0299 20.206-25.36 22.398-8.4905 1.14-13.615 7.951-17.307 23.003-2.4829 10.122-1.048 15.423 6.7847 25.063 10.944 13.469 16.259 23.824 19.377 37.75 0.75038 3.3516 2.4651 9.8324 3.8105 14.402 4.688 15.922 3.012 29.004-5.9117 46.142-2.1063 4.0452-3.8296 8.2442-3.8296 9.331 0 10.048-6.0518 26.535-14.139 38.52-7.6446 11.329-9.3769 27.959-6.257 60.07 1.6209 16.683 1.4673 31.324-0.56223 53.589-1.8418 20.205-1.5179 26.724 1.9629 39.509 0.94275 3.4627 1.5108 11.007 1.7297 22.969 0.35898 19.625 0.45158 20.294 3.7861 27.343 2.8559 6.0369 3.7705 6.386 16.761 6.3979 11.997 0.011 14.724 1.3705 20.647 10.294 5.7102 8.6028 6.3801 11.112 5.7135 21.403-0.67891 10.481 0.0437 12.853 3.9065 12.826 3.9571-0.0277 11.127-5.0461 13.303-9.311 3.4707-6.8031 7.1644-7.3042 14.002-1.8994 13.887 10.977-7.5976 35.553-31.134 35.613-2.166 0.006-6.0476 0.69846-8.6257 1.5397-5.7668 1.8817-25.481 2.5422-37.5 1.2562-33.966-3.6343-39.467-3.8394-75.938-2.8314-19.594 0.54156-39.633 1.4672-44.531 2.057-10.122 1.2187-69.244 1.6242-76.955 0.52782zm61.018-4.03c3.8672-0.27541 11.25-0.89811 16.406-1.3838 36.926-3.4781 83.484-3.9852 101.25-1.1028 11.951 1.939 54.159 2.2748 57.334 0.45623 1.112-0.63689 6.1745-1.6067 11.25-2.1552 11.627-1.2564 11.575-1.2393 16.696-5.4717 9.2766-7.6658 12.699-16.073 8.4519-20.766-2.8975-3.2017-6.1821-2.3586-9.3575 2.402-8.4624 12.687-31.765 17.858-61.406 13.628-21.067-3.0066-32.903-3.9375-36.562-2.8758-3.4388 0.9978-10.485 0.39146-13.469-1.1591-3.0222-1.5702-66.526-1.1051-81.998 0.60046-59.628 6.5732-95.624 3.594-108.61-8.9884-3.69-3.5765-3.3979-4.5853 0.51991-1.7956 12.758 9.0842 58.371 11.972 104.18 6.596 15.382-1.8054 22.333-2.1164 43.828-1.9616 24.242 0.17462 25.547 0.096 25.547-1.5398 0-1.8963-4.1241-6.1215-6.9536-7.1242-1.3012-0.46109-1.5143-0.92004-0.77176-1.6626 1.7826-1.7826 5.7377 0.0335 10.802 4.9598 8.6317 8.3974 15.378 7.3067 9.2879-1.5016-6.6467-9.614-17.413-14.036-27.362-11.237-23.117 6.5022-38.947-9.4018-32.263-32.414 0.81887-2.8194 1.8422-7.6574 2.2741-10.751 0.43191-3.0938 1.6841-9.2109 2.7826-13.594 1.0985-4.3828 2.3878-10.922 2.8652-14.531 0.47734-3.6094 1.5148-10.781 2.3055-15.938 2.0274-13.221 3.1248-32.345 2.3939-41.719-2.0435-26.209 6.4306-55.312 16.105-55.312 8.2148 0 9.4256 3.1804 10.172 26.719 0.34335 10.828 1.0932 21.396 1.6664 23.483 1.0336 3.7649 1.3495 5.9843 4.3306 30.423 0.84913 6.9609 1.9934 15.333 2.5428 18.604 0.54942 3.2712 0.9479 11.92 0.8855 19.219-0.17686 20.686 1.1626 25.211 10.45 35.302 6.1993 6.7358 10.181 14.498 12.428 24.227 1.4856 6.4336 5.2648 14.581 9.9154 21.375 2.9549 4.3171 2.3739 4.1502 20.519 5.8972 5.4141 0.52127 13.43 1.5846 17.812 2.3631 10.144 1.8017 10.074 1.8045 10.786-0.43983 1.4404-4.5383-5.209-15.488-10.816-17.81-2.9991-1.2422-3.5722-2.556-1.4673-3.3637 1.4225-0.54587 7.3034 2.2777 10.522 5.0516 2.8294 2.4389 5.1338 7.2815 5.851 12.296 1.1131 7.7815 5.3102 6.3396 5.1928-1.784-0.14822-10.256-7.54-21.483-15.35-23.314-14.381-3.3726-14.224-3.2835-19.316-10.948-7.7958-11.735-8.3479-13.928-8.5773-34.078-0.11384-10.001-0.60485-19.493-1.0911-21.094-0.48627-1.6003-1.3899-6.4955-2.0081-10.878-0.61817-4.3828-1.9526-11.133-2.9654-15-1.9625-7.4935-1.9655-6.8011 0.18333-41.25 0.49854-7.9922 1.1576-21.703 1.4646-30.469 0.30698-8.7656 0.95629-17 1.4429-18.299 0.4866-1.2986 1.4612-6.5721 2.1658-11.719 0.7046-5.1466 2.3814-12.408 3.7261-16.137 1.3448-3.7286 2.4635-7.5255 2.4862-8.4375 0.0786-3.1706 2.5175-8.5588 6.5432-14.456 5.8452-8.5632 9.043-16.238 10.724-25.737 2.2586-12.766 2.8046-14.542 6.0217-19.59 6.3928-10.03 9.3533-27.666 6.3826-38.02-0.8055-2.8075-2.3671-9.9561-3.4701-15.886-2.8502-15.322-9.8093-30.298-17.785-38.273-9.3302-9.3302-11.413-18.841-7.4923-34.213 4.6257-18.136 9.0067-23.13 21.535-24.546 7.2781-0.82299 11.798-2.9798 15.081-7.1967 6.1254-7.8675 5.6426-10.389-1.4104-7.366-7.906 3.3889-7.5692-0.0045 0.46194-4.6546 9.3416-5.4089 11.064-12.262 5.0578-20.13-2.1875-2.8658-3.2205-5.1511-3.0469-6.7405 0.22466-2.0559-0.62084-2.9453-5.831-6.1334-3.3516-2.0508-8.6785-6.3388-11.838-9.5289-9.4398-9.5323-16.402-12.153-35.293-13.284-12.869-0.77069-13.856-1.434-15.728-10.569-2.5724-12.55-5.8275-14.632-12.372-7.9118-12.93 13.278-13.325 38.241-0.70734 44.765 2.6756 1.3836 2.7062 1.4931 2.5564 9.1378-0.1644 8.3908 1.4368 15.793 4.1925 19.382 2.9063 3.7853 0.26442 5.0114-2.8411 1.3185-3.6768-4.3721-5.7823-11.26-5.7823-18.916 0-5.6433-0.27657-6.7861-1.8456-7.6258-2.29-1.209-6.55-8.394-6.55-11.075 0-1.4966-0.5705-2.027-2.1803-2.027-8.4312 0-15.071 26.221-11.958 47.225 2.3988 16.187 0.57727 31.924-5.7918 50.04-1.634 4.6476-0.25436 5.3456 6.9014 3.4913 5.965-1.5457 9.531-1.4237 17.074 0.58414 6.451 1.7172 3.5218 3.0788-6.9184 3.216-19.817 0.26051-27.977 8.0894-29.621 28.421-0.96057 11.88-8.6932 21.614-24.696 31.087-5.7676 3.414-9.8657 6.6437-12.448 9.8098-6.5234 7.9998-8.9223 9.7728-22.12 16.349-18.507 9.2221-25.673 14.002-35.715 23.823-4.9136 4.8058-10.199 9.5361-11.746 10.512-8.8991 5.6128-33.281 29.591-33.281 32.73 0 0.31081-1.03 2.1381-2.2889 4.0606-3.2329 4.9372-13.421 30.633-14.587 36.789-0.53572 2.8291-3.2859 13.473-6.1116 23.653-2.8256 10.18-5.1375 19.886-5.1375 21.569 0 1.6828-0.43205 4.5334-0.96011 6.3347-1.303 4.4446-1.6409 7.1921-2.363 19.213-0.34073 5.6719-1.0639 10.857-1.607 11.522-1.2887 1.5789-0.23973 35.653 1.4924 48.478 1.0578 7.8325 1.3382 29.999 0.51574 40.781-1.4382 18.854 4.7401 34.647 18.82 48.107 7.9507 7.6004 14.578 10.185 42.696 16.653 2.0625 0.4744 11.321 1.0862 20.574 1.3596 9.253 0.27338 16.966 0.63965 17.141 0.81393 0.38296 0.38295 19.539-0.2079 29.317-0.90428zm85.489-112.96c-1.1373-3.6403-2.7236-10.707-3.5252-15.703-0.80159-4.9964-2.1279-12.037-2.9474-15.647-1.8733-8.2507-2.8158-43.066-1.193-44.069 1.6722-1.0334 1.7242-0.69889 2.2653 14.56 0.283 7.9804 1.3312 19.572 2.3295 25.76 0.99822 6.1875 2.0962 14.625 2.44 18.75 0.34377 4.125 1.4624 10.242 2.4858 13.594 2.5749 8.4323 2.7137 9.375 1.3805 9.375-0.64223 0-2.0982-2.9785-3.2354-6.6188zm54.93-414.34c-4.15-3.42-9.09-5.598-12.71-5.598-4.6959 0-6.7904-2.401-4.0898-4.6881 4.5024-3.8131 15.219-1.4719 18.367 4.0124 0.95315 1.6607 2.7924 3.8989 4.0872 4.9737 2.4779 2.0569 2.1748 4.1395-0.60249 4.1395-0.88334 0-3.1562-1.2777-5.0507-2.8394zm-55.318-6.3013c-4.8955-5.5834-6.0806-16.963-2.6097-25.06 2.2005-5.1337 4.0712-4.9742 2.6292 0.22404-1.447 5.216-0.36565 16.143 1.9779 19.987 2.2384 3.6717 2.5432 6.4898 0.70207 6.4898-0.69352 0-1.9083-0.73828-2.6994-1.6406zm16.54 511.07c3.0775-1.1809 0.16217-9.1709-4.3764-11.994-4.0644-2.5285-6.5687 4.9837-3.545 10.634 1.0369 1.9375 4.7543 2.5761 7.9214 1.3608zm75.057-6.5287c3.3454-10.636 1.0137-20.205-6.9681-28.595l-3.5026-3.682-8.817-0.039c-21.187-0.0937-26.781-8.8461-26.94-42.148-0.0697-14.675-0.44706-18.508-3.5402-35.963-1.6561-9.3452-1.6472-14.262 0.0377-21.004 4.989-19.965 2.1211-78.653-3.3438-68.423-0.11881 0.22241-1.1242 16.462-3.6034 58.204-1.1061 18.623 0.3992 37.288 3.7552 46.562 1.9624 5.4229 3.8923 23.64 3.804 35.907-0.1484 20.607 6.583 32.785 19.781 35.787 9.6662 2.1985 14.144 5.2378 20.945 14.217 1.2158 1.6052 1.3241 1.4725 1.3515-1.657 0.0247-2.8252-0.77103-4.2416-4.6937-8.3546-4.8628-5.0986-5.1355-7.5594-0.60924-5.4971 5.8718 2.6754 12.137 17.611 8.614 20.535-1.4345 1.1905-1.8621 5.2212-0.8372 7.8921 1.1152 2.9062 2.9489 1.4046 4.567-3.7398zm-83.422-11.645c1.175-1.9012-5.4511-13.583-10.504-18.517-8.9407-8.732-14.308-10.054-27.829-6.8544-4.5852 1.085-8.541 1.7684-8.7907 1.5187-0.24972-0.24973-1.6452 0.16195-3.1011 0.91482-1.4559 0.75288-4.7525 1.3689-7.3258 1.3689-5.6725 0-5.8127 0.19852-4.2957 6.0845 2.5374 9.8449 10.268 12.741 24.65 9.2334 9.1583-2.2332 11.32-1.9868 20.28 2.3126 9.719 4.6635 8.9533 4.5476 8.9458 1.3538-0.008-3.5693-6.573-10.986-12.286-13.881-6.8379-3.465-5.6534-5.8133 1.4377-2.8505 5.0672 2.1172 10.311 7.5421 13.651 14.121 3.0679 6.0443 4.0401 7.0216 5.1686 5.1956zm-4.2146-21.237c0-0.84865-2.7511-4.3291-6.1136-7.7344-11.232-11.375-13.178-17.24-12.21-36.793 0.467-9.4341 0.26649-15.091-0.76429-21.562-2.0733-13.017-3.2402-21.7-4.3916-32.679-0.56776-5.4141-1.8452-14.696-2.8387-20.626-0.99351-5.93-1.8087-15.211-1.8116-20.625-0.007-11.783-1.1288-16.577-4.2105-17.981-7.7824-3.5459-12.73 12.928-13.143 43.763-0.33417 24.925-1.234 42.912-2.3685 47.344-0.46202 1.8047-1.2989 7.5-1.8597 12.656-1.025 9.4246-2.7013 18.372-6.6529 35.511l-2.1353 9.2612 2.1666 1.7544c2.8919 2.3417 5.9006 2.213 14.719-0.62982 15.98-5.1516 25.275-3.7723 34.977 5.1904 5.4325 5.0186 6.6379 5.5908 6.6379 3.1508z"
     id="path4"
     inkscape:export-filename="C:\wamp\www\Flashcards\Decks\page_1\language\cat.png"
     inkscape:export-xdpi="90"
     inkscape:export-ydpi="90" />
</svg>
